<svg version="1.1" id="Layer_1" xmlns="http://www.w3.org/2000/svg" xmlns:xlink="http://www.w3.org/1999/xlink" x="0px" y="0px" width="58px" height="58px" viewBox="0 0 600 600" enable-background="new 0 0 600 600" xml:space="preserve"><path id="color_x5F_1" fill="#274859" d="M595.024,446.197l-90.535-84.665c6.827-6.999,11.045-16.551,11.045-27.076v-206.36    c0-21.404-17.413-38.818-38.818-38.818H123.266c-21.409,0-38.827,17.413-38.827,38.818v206.36c0,10.525,4.22,20.081,11.05,27.081    l-90.955,85.06c-4.288,4.009-5.69,10.233-3.534,15.695c2.156,5.462,7.431,9.05,13.303,9.05h571.378c0.006,0,0.012,0,0.018,0    c7.898,0,14.301-6.404,14.301-14.301C600,452.705,598.07,448.82,595.024,446.197z M113.042,128.095    c0-5.632,4.586-10.214,10.223-10.214h353.451c5.632,0,10.215,4.582,10.215,10.214v206.36c0,5.629-4.583,10.209-10.215,10.209    H123.266c-5.637,0-10.223-4.581-10.223-10.209V128.095z M50.534,442.739l74.286-69.472h350.341l74.287,69.472H50.534z     M584.04,497.222c0,7.456-6.044,13.501-13.5,13.501H29.432c-7.456,0-13.5-6.045-13.5-13.501c0-7.454,6.044-13.499,13.5-13.499    h541.109C577.996,483.723,584.04,489.768,584.04,497.222z M362.519,408.006c0,7.456-6.045,13.499-13.501,13.499h-98.065    c-7.456,0-13.5-6.043-13.5-13.499c0-7.456,6.044-13.501,13.5-13.501h98.065C356.474,394.505,362.519,400.55,362.519,408.006z     M462.411,316.578H137.564V145.975h294.709L388.24,190.01c-15.159-4.441-32.236-0.692-44.165,11.247    c-12.576,12.574-16.49,31.403-9.96,47.961c0.741,1.874,2.379,3.25,4.345,3.662c1.981,0.406,4.028-0.209,5.452-1.627l20.249-20.251    c3.656-3.668,9.632-3.662,13.286,0c3.666,3.667,3.666,9.627,0,13.29l-20.249,20.245c-1.423,1.427-2.03,3.471-1.63,5.448    c0.415,1.973,1.795,3.604,3.658,4.347c16.562,6.529,35.389,2.622,47.968-9.96c11.936-11.932,15.684-29.001,11.257-44.165    l43.959-43.968V316.578z"></path></svg>